<svg width="121" height="49" viewBox="0 0 121 49" xmlns="http://www.w3.org/2000/svg" xmlns:xlink="http://www.w3.org/1999/xlink">
    <g id="Group">
        <path id="Path" fill="#ffffff" stroke="none" d="M 15.310205 17.551411 L 10.289116 17.966665 L 14.871201 18.298872 L 13.38957 20.901131 L 26.230387 20.901131 L 28.068705 17.551411 Z"/>
        <path id="path1" fill="#ffffff" stroke="none" d="M 33.501362 18.935591 C 33.117237 19.599997 32.705673 20.26441 32.348976 20.928816 L 45.299549 20.928816 C 45.793423 20.042936 46.095238 19.489264 46.150116 19.433901 C 46.56168 18.797173 46.863487 18.160454 47.137867 17.579096 L 34.187302 17.579096 C 33.995235 17.99435 33.748299 18.464975 33.501362 18.935591 Z"/>
        <path id="path2" fill="#ffffff" stroke="none" d="M 30.373472 24.55537 C 30.373472 24.55537 30.208845 24.859884 29.934469 25.38588 L 42.802723 25.38588 C 43.570972 24.001698 44.31179 22.700565 44.887985 21.676268 L 31.937414 21.676268 C 31.031975 23.281923 30.373472 24.55537 30.373472 24.55537 Z"/>
        <path id="path3" fill="#ffffff" stroke="none" d="M 29.221088 26.631641 C 28.452837 27.988138 27.410202 29.815258 26.395014 31.448589 C 25.489567 32.88813 24.721317 33.801697 23.623812 33.801697 C 21.785486 33.801697 19.261223 33.690964 19.261223 33.690964 L 23.102497 26.631641 L 10.124488 26.631641 L 10.124488 26.631641 L 10.124488 26.631641 L 10.124488 26.631641 L 10.124488 26.631641 L 5.953968 26.991526 L 9.795238 27.240677 L 7.270975 31.64237 L 0.192063 32.002262 L 6.941724 32.251411 L 2.908392 39.310734 C 2.908392 39.310734 20.578232 39.449154 28.699776 39.310734 C 35.559185 39.172318 37.370071 35.102821 37.370071 35.102821 C 37.370071 35.102821 39.78458 30.756498 42.08934 26.659319 L 29.221088 26.659319 Z"/>
        <path id="path4" fill="#ffffff" stroke="none" d="M 12.950566 21.64859 L 12.950566 21.64859 L 5.871654 21.897741 L 12.621315 22.257626 L 10.837869 25.38588 L 23.788439 25.38588 L 25.818823 21.64859 Z"/>
        <path id="path5" fill="#ffffff" stroke="none" d="M 42.226528 8.415817 C 39.537643 8.415817 20.495922 8.415817 20.495922 8.415817 L 19.124035 10.824295 L 46.753738 10.824295 C 45.628796 9.27401 43.790478 8.415817 42.226528 8.415817 Z"/>
        <path id="path6" fill="#ffffff" stroke="none" d="M 47.823807 13.786438 C 47.741497 12.789833 47.439682 11.903954 47.000675 11.156494 L 18.959412 11.156494 L 13.828569 11.544071 L 18.602722 11.765537 L 17.450342 13.786438 L 47.823807 13.786438 Z"/>
        <path id="path7" fill="#ffffff" stroke="none" d="M 17.2034 14.201691 L 10.097053 14.561584 L 16.901588 14.727688 L 15.612017 16.997738 L 28.343081 16.997738 L 29.358276 15.142941 C 29.358276 15.142941 31.909973 15.142941 33.172108 15.142941 C 34.37936 15.142941 34.598869 15.97345 34.351933 16.997738 L 47.357372 16.997738 C 47.714058 16.001125 47.878685 15.059887 47.878685 14.201691 L 17.2034 14.201691 Z"/>
    </g>
    <g id="g1">
        <path id="path8" fill="#ffffff" stroke="none" d="M 84.480499 21.731638 L 84.480499 21.703953 L 81.873924 21.925426 L 84.261002 22.257626 L 82.943985 25.38588 L 95.428116 25.38588 L 96.55307 21.731638 Z"/>
        <path id="path9" fill="#ffffff" stroke="none" d="M 86.181633 17.689829 L 86.154198 17.689829 L 86.154198 17.689829 L 83.575058 17.911303 L 85.962128 18.132769 L 84.78231 20.984177 L 96.772568 20.984177 L 97.760315 17.689829 Z"/>
        <path id="path10" fill="#ffffff" stroke="none" d="M 100.476646 8.775711 L 100.449196 8.775711 L 100.476646 8.609608 L 89.968025 8.609608 L 89.035149 10.851982 L 99.845589 10.851982 Z"/>
        <path id="path11" fill="#ffffff" stroke="none" d="M 88.897957 11.184177 L 88.897957 11.184177 L 88.897957 11.184177 L 88.897957 11.184177 L 88.897957 11.184177 L 85.413376 11.571747 L 88.651024 11.765537 L 87.800453 13.786438 L 98.967575 13.786438 L 99.76326 11.184177 Z"/>
        <path id="path12" fill="#ffffff" stroke="none" d="M 95.071426 26.631641 L 95.043999 26.659319 L 95.043999 26.631641 L 82.422676 26.631641 L 82.422676 26.631641 L 82.422676 26.631641 L 79.953285 26.96384 L 82.175735 27.185314 L 80.309982 31.614693 L 76.797958 31.891529 L 80.117912 32.085312 L 77.182083 39.061584 L 89.309525 39.061584 L 100.449196 39.061584 L 108.81768 26.631641 Z"/>
        <path id="path13" fill="#ffffff" stroke="none" d="M 87.635826 14.201691 L 87.635826 14.201691 L 84.425629 14.561584 L 87.416328 14.727688 L 86.401131 17.136156 L 97.92495 17.136156 L 98.830391 14.201691 Z"/>
        <path id="path14" fill="#ffffff" stroke="none" d="M 106.842186 11.184177 L 106.842186 11.184177 L 104.01609 11.461014 L 106.540359 11.599434 L 104.839226 13.786438 L 117.433105 13.786438 L 119.189125 11.184177 Z"/>
        <path id="path15" fill="#ffffff" stroke="none" d="M 120.80793 8.609608 L 108.790253 8.609608 L 107.089111 10.851982 L 119.408623 10.851982 L 120.917694 8.609608"/>
        <path id="path16" fill="#ffffff" stroke="none" d="M 104.537415 14.201691 L 104.537415 14.201691 L 101.601585 14.533897 L 104.180733 14.672318 L 102.287521 17.136156 L 115.18322 17.136156 L 117.15873 14.201691 Z"/>
        <path id="path17" fill="#ffffff" stroke="none" d="M 101.903412 17.689829 L 101.875961 17.689829 L 98.830391 17.883617 L 101.601585 18.049721 L 99.379143 20.984177 L 112.604088 20.984177 L 114.82653 17.689829 Z"/>
        <path id="path18" fill="#ffffff" stroke="none" d="M 96.004318 25.38588 L 109.640808 25.38588 L 112.110199 21.731638 L 98.80294 21.731638 Z"/>
    </g>
    <g id="g2">
        <path id="path19" fill="#ffffff" stroke="none" d="M 67.222221 8.858757 L 67.194786 8.858757 L 67.222221 8.609608 L 55.945351 8.609608 L 54.683216 10.851982 L 67.139915 10.851982 Z"/>
        <path id="path20" fill="#ffffff" stroke="none" d="M 45.765984 26.631641 L 45.765984 26.631641 L 45.738552 26.631641 L 45.738552 26.631641 L 45.738552 26.631641 L 43.296597 26.936155 L 45.464176 27.129944 L 42.912472 31.64237 L 39.016331 31.919205 L 42.638092 32.112995 L 38.714516 39.061584 L 50.841946 39.061584 L 55.753292 29.732203 L 55.533787 38.729378 L 55.533787 38.729378 L 55.533787 38.729378 L 64.560768 30.341244 L 60.088436 39.061584 L 72.901817 39.061584 L 78.30703 26.631641 Z"/>
        <path id="path21" fill="#ffffff" stroke="none" d="M 48.537186 21.731638 L 45.326988 21.897741 L 48.26281 22.202263 L 46.451923 25.38588 L 78.855782 25.38588 L 80.447166 21.731638 Z"/>
        <path id="path22" fill="#ffffff" stroke="none" d="M 50.814514 17.689829 L 47.823807 17.93898 L 50.512699 18.188139 L 48.94875 20.984177 L 80.776413 20.984177 L 82.203178 17.689829 Z"/>
        <path id="path23" fill="#ffffff" stroke="none" d="M 86.154198 8.609608 L 86.044449 8.609608 L 74.76757 8.609608 L 72.792061 10.851982 L 85.166435 10.851982 Z"/>
        <path id="path24" fill="#ffffff" stroke="none" d="M 52.79002 14.201691 L 52.79002 14.201691 L 52.79002 14.201691 L 48.729252 14.561584 L 52.488205 14.727688 L 51.116322 17.136156 L 66.947845 17.136156 L 67.030159 14.201691 Z"/>
        <path id="path25" fill="#ffffff" stroke="none" d="M 54.628345 11.184177 L 50.073696 11.516384 L 54.189342 11.73785 L 53.009525 13.786438 L 67.057594 13.786438 L 67.139915 11.184177 Z"/>
        <path id="path26" fill="#ffffff" stroke="none" d="M 72.49025 11.184177 L 72.49025 11.184177 L 67.825851 11.571747 L 71.968933 11.765537 L 70.185486 13.786438 L 83.876877 13.786438 L 85.029251 11.184177 Z"/>
        <path id="path27" fill="#ffffff" stroke="none" d="M 69.883675 14.201691 L 67.633789 14.395481 L 69.55442 14.506214 L 67.222221 17.136156 L 82.422676 17.136156 L 83.71225 14.201691 Z"/>
    </g>
    <g id="g3">
        <path id="path28" fill="#ffffff" stroke="none" d="M 3.182768 42.522034 L 4.829027 42.522034 C 6.338097 42.522034 7.298414 43.574009 7.298414 44.958191 C 7.298414 46.342373 6.310658 47.394352 4.829027 47.394352 L 3.182768 47.394352 L 3.182768 42.522034 Z M 4.856462 46.868359 C 6.036281 46.868359 6.722222 46.010174 6.722222 44.985874 C 6.722222 43.933903 6.063721 43.075706 4.856462 43.075706 L 3.813831 43.075706 L 3.813831 46.868359 L 4.856462 46.868359 Z"/>
        <path id="path29" fill="#ffffff" stroke="none" d="M 9.877551 43.795483 C 10.947618 43.795483 11.551249 44.625992 11.551249 45.677967 L 11.551249 45.816383 L 8.725171 45.816383 C 8.780046 46.480789 9.219049 47.034462 9.9873 47.034462 C 10.398865 47.034462 10.782994 46.868359 11.05737 46.591522 L 11.331747 46.951416 C 10.975057 47.311298 10.508617 47.505085 9.932425 47.505085 C 8.889794 47.505085 8.148979 46.757626 8.148979 45.65028 C 8.148979 44.625992 8.889794 43.795483 9.877551 43.795483 Z M 8.725171 45.428814 L 11.029931 45.428814 C 11.029931 44.902828 10.673241 44.238415 9.877551 44.238415 C 9.136736 44.238415 8.752606 44.875145 8.725171 45.428814 Z"/>
        <path id="path30" fill="#ffffff" stroke="none" d="M 12.539001 48.750851 L 12.539001 43.878532 L 13.087754 43.878532 L 13.087754 44.404518 C 13.334696 44.044636 13.773695 43.795483 14.267573 43.795483 C 15.200452 43.795483 15.831518 44.487576 15.831518 45.65028 C 15.831518 46.785309 15.200452 47.505085 14.267573 47.505085 C 13.801135 47.505085 13.362131 47.283611 13.087754 46.896042 L 13.087754 48.778534 L 12.539001 48.778534 Z M 14.130385 44.266098 C 13.691381 44.266098 13.279817 44.515251 13.087754 44.819771 L 13.087754 46.425426 C 13.279817 46.729939 13.691381 47.006775 14.130385 47.006775 C 14.843766 47.006775 15.25533 46.425426 15.25533 45.65028 C 15.25533 44.847458 14.843766 44.266098 14.130385 44.266098 Z"/>
        <path id="path31" fill="#ffffff" stroke="none" d="M 19.014286 47.006775 C 18.712471 47.338982 18.328346 47.505085 17.861906 47.505085 C 17.258274 47.505085 16.627213 47.089832 16.627213 46.342373 C 16.627213 45.539547 17.258274 45.179665 17.861906 45.179665 C 18.328346 45.179665 18.73991 45.34576 19.014286 45.65028 L 19.014286 45.013561 C 19.014286 44.542938 18.630157 44.266098 18.136282 44.266098 C 17.724718 44.266098 17.368029 44.432205 17.066212 44.764412 L 16.819275 44.376831 C 17.2034 43.989265 17.642405 43.795483 18.218592 43.795483 C 18.959412 43.795483 19.56304 44.127682 19.56304 44.985874 L 19.56304 47.422031 L 19.014286 47.422031 L 19.014286 47.006775 Z M 19.014286 45.982487 C 18.794785 45.677967 18.438095 45.539547 18.053968 45.539547 C 17.560091 45.539547 17.2034 45.871754 17.2034 46.314686 C 17.2034 46.757626 17.560091 47.089832 18.053968 47.089832 C 18.438095 47.089832 18.794785 46.951416 19.014286 46.646893 L 19.014286 45.982487 Z"/>
        <path id="path32" fill="#ffffff" stroke="none" d="M 20.742859 43.878532 L 21.291611 43.878532 L 21.291611 44.459888 C 21.565989 44.099998 21.977552 43.823162 22.471426 43.823162 L 22.471426 44.376831 C 22.416557 44.349155 22.334238 44.349155 22.251928 44.349155 C 21.922674 44.349155 21.45624 44.625992 21.291611 44.902828 L 21.291611 47.394352 L 20.742859 47.394352 L 20.742859 43.878532 Z"/>
        <path id="path33" fill="#ffffff" stroke="none" d="M 23.349434 46.67458 L 23.349434 44.376831 L 22.773243 44.376831 L 22.773243 43.906216 L 23.349434 43.906216 L 23.349434 42.909603 L 23.898188 42.909603 L 23.898188 43.878532 L 24.611568 43.878532 L 24.611568 44.349155 L 23.898188 44.349155 L 23.898188 46.53616 C 23.898188 46.812996 24.007936 46.979099 24.254873 46.979099 C 24.4195 46.979099 24.55669 46.923729 24.611568 46.840683 L 24.776188 47.255936 C 24.638998 47.394352 24.446941 47.477402 24.117685 47.477402 C 23.623812 47.505085 23.349434 47.200565 23.349434 46.67458 Z"/>
        <path id="path34" fill="#ffffff" stroke="none" d="M 29.714962 45.013561 C 29.714962 44.570621 29.522903 44.293785 29.056461 44.293785 C 28.699776 44.293785 28.315649 44.570621 28.123583 44.847458 L 28.123583 47.422031 L 27.574829 47.422031 L 27.574829 45.013561 C 27.574829 44.570621 27.382763 44.293785 26.916328 44.293785 C 26.559633 44.293785 26.175508 44.570621 25.98345 44.847458 L 25.98345 47.422031 L 25.434698 47.422031 L 25.434698 43.878532 L 25.98345 43.878532 L 25.98345 44.376831 C 26.120638 44.155369 26.587072 43.767799 27.108387 43.767799 C 27.657139 43.767799 27.958956 44.072319 28.041273 44.432205 C 28.233332 44.099998 28.699776 43.767799 29.221088 43.767799 C 29.85215 43.767799 30.208845 44.127682 30.208845 44.847458 L 30.208845 47.394352 L 29.660093 47.394352 L 29.660093 45.013561 Z"/>
        <path id="path35" fill="#ffffff" stroke="none" d="M 32.980049 43.795483 C 34.050114 43.795483 34.65374 44.625992 34.65374 45.677967 L 34.65374 45.816383 L 31.827665 45.816383 C 31.882544 46.480789 32.321537 47.034462 33.089798 47.034462 C 33.501362 47.034462 33.885487 46.868359 34.159863 46.591522 L 34.434242 46.951416 C 34.077553 47.311298 33.611111 47.505085 33.03492 47.505085 C 31.992292 47.505085 31.251472 46.757626 31.251472 45.65028 C 31.251472 44.625992 31.964853 43.795483 32.980049 43.795483 Z M 31.827665 45.428814 L 34.132423 45.428814 C 34.132423 44.902828 33.775738 44.238415 32.980049 44.238415 C 32.211788 44.238415 31.855104 44.875145 31.827665 45.428814 Z"/>
        <path id="path36" fill="#ffffff" stroke="none" d="M 38.001133 45.096607 C 38.001133 44.487576 37.699318 44.266098 37.205444 44.266098 C 36.766441 44.266098 36.382313 44.542938 36.162807 44.819771 L 36.162807 47.394352 L 35.614056 47.394352 L 35.614056 43.850845 L 36.162807 43.850845 L 36.162807 44.349155 C 36.409756 44.044636 36.87619 43.740112 37.397503 43.740112 C 38.138321 43.740112 38.522446 44.099998 38.522446 44.875145 L 38.522446 47.366669 L 37.973694 47.366669 L 37.973694 45.096607 Z"/>
        <path id="path37" fill="#ffffff" stroke="none" d="M 39.839458 46.67458 L 39.839458 44.376831 L 39.263268 44.376831 L 39.263268 43.906216 L 39.839458 43.906216 L 39.839458 42.909603 L 40.38821 42.909603 L 40.38821 43.878532 L 41.101585 43.878532 L 41.101585 44.349155 L 40.38821 44.349155 L 40.38821 46.53616 C 40.38821 46.812996 40.497959 46.979099 40.7449 46.979099 C 40.909527 46.979099 41.046715 46.923729 41.101585 46.840683 L 41.266212 47.255936 C 41.129025 47.394352 40.936966 47.477402 40.607708 47.477402 C 40.113834 47.505085 39.839458 47.200565 39.839458 46.67458 Z"/>
        <path id="path38" fill="#ffffff" stroke="none" d="M 43.763039 45.622597 C 43.763039 44.598305 44.421539 43.767799 45.491608 43.767799 C 46.56168 43.767799 47.220184 44.598305 47.220184 45.622597 C 47.220184 46.646893 46.56168 47.477402 45.491608 47.477402 C 44.421539 47.505085 43.763039 46.646893 43.763039 45.622597 Z M 46.64399 45.622597 C 46.64399 44.902828 46.232426 44.266098 45.491608 44.266098 C 44.750793 44.266098 44.31179 44.902828 44.31179 45.622597 C 44.31179 46.342373 44.723354 46.979099 45.491608 46.979099 C 46.232426 47.006775 46.64399 46.370056 46.64399 45.622597 Z"/>
        <path id="path39" fill="#ffffff" stroke="none" d="M 48.372559 44.349155 L 47.796375 44.349155 L 47.796375 43.878532 L 48.372559 43.878532 L 48.372559 43.601696 C 48.372559 42.88192 48.784122 42.466663 49.387756 42.466663 C 49.579823 42.466663 49.771881 42.49435 49.909069 42.577396 L 49.771881 42.992653 C 49.689571 42.93729 49.579823 42.909603 49.470066 42.909603 C 49.11338 42.909603 48.92131 43.158756 48.92131 43.601696 L 48.92131 43.878532 L 49.634693 43.878532 L 49.634693 44.349155 L 48.92131 44.349155 L 48.92131 47.394352 L 48.372559 47.394352 L 48.372559 44.349155 Z"/>
        <path id="path40" fill="#ffffff" stroke="none" d="M 56.494102 43.352543 L 54.847843 47.422031 L 54.600906 47.422031 L 52.954647 43.352543 L 52.954647 47.422031 L 52.351017 47.422031 L 52.351017 42.549721 L 53.201584 42.549721 L 54.710655 46.259323 L 56.219727 42.549721 L 57.070293 42.549721 L 57.070293 47.422031 L 56.466663 47.422031 L 56.466663 43.352543 Z"/>
        <path id="path41" fill="#ffffff" stroke="none" d="M 58.112923 45.622597 C 58.112923 44.598305 58.771431 43.767799 59.841499 43.767799 C 60.911564 43.767799 61.570065 44.598305 61.570065 45.622597 C 61.570065 46.646893 60.911564 47.477402 59.841499 47.477402 C 58.798862 47.505085 58.112923 46.646893 58.112923 45.622597 Z M 61.021313 45.622597 C 61.021313 44.902828 60.609749 44.266098 59.868938 44.266098 C 59.128117 44.266098 58.689114 44.902828 58.689114 45.622597 C 58.689114 46.342373 59.100677 46.979099 59.868938 46.979099 C 60.609749 47.006775 61.021313 46.370056 61.021313 45.622597 Z"/>
        <path id="path42" fill="#ffffff" stroke="none" d="M 62.695011 46.67458 L 62.695011 44.376831 L 62.11882 44.376831 L 62.11882 43.906216 L 62.695011 43.906216 L 62.695011 42.909603 L 63.243763 42.909603 L 63.243763 43.878532 L 63.957146 43.878532 L 63.957146 44.349155 L 63.243763 44.349155 L 63.243763 46.53616 C 63.243763 46.812996 63.353512 46.979099 63.600449 46.979099 C 63.765079 46.979099 63.902267 46.923729 63.957146 46.840683 L 64.121773 47.255936 C 63.984585 47.394352 63.792519 47.477402 63.463261 47.477402 C 62.941948 47.505085 62.695011 47.200565 62.695011 46.67458 Z"/>
        <path id="path43" fill="#ffffff" stroke="none" d="M 64.615646 45.622597 C 64.615646 44.598305 65.274147 43.767799 66.344215 43.767799 C 67.414291 43.767799 68.072792 44.598305 68.072792 45.622597 C 68.072792 46.646893 67.414291 47.477402 66.344215 47.477402 C 65.274147 47.505085 64.615646 46.646893 64.615646 45.622597 Z M 67.496597 45.622597 C 67.496597 44.902828 67.085037 44.266098 66.344215 44.266098 C 65.603401 44.266098 65.164398 44.902828 65.164398 45.622597 C 65.164398 46.342373 65.575966 46.979099 66.344215 46.979099 C 67.085037 47.006775 67.496597 46.370056 67.496597 45.622597 Z"/>
        <path id="path44" fill="#ffffff" stroke="none" d="M 69.060547 43.878532 L 69.609299 43.878532 L 69.609299 44.459888 C 69.883675 44.099998 70.295242 43.823162 70.789116 43.823162 L 70.789116 44.376831 C 70.734238 44.349155 70.651924 44.349155 70.569618 44.349155 C 70.240364 44.349155 69.773918 44.625992 69.609299 44.902828 L 69.609299 47.394352 L 69.060547 47.394352 L 69.060547 43.878532 Z"/>
        <path id="path45" fill="#ffffff" stroke="none" d="M 73.066437 42.522034 L 73.75238 42.522034 L 75.371208 46.729939 L 76.990021 42.522034 L 77.675964 42.522034 L 75.72789 47.394352 L 74.987068 47.394352 L 73.066437 42.522034 Z"/>
        <path id="path46" fill="#ffffff" stroke="none" d="M 79.514282 43.795483 C 80.584358 43.795483 81.187981 44.625992 81.187981 45.677967 L 81.187981 45.816383 L 78.361908 45.816383 C 78.416779 46.480789 78.855782 47.034462 79.624039 47.034462 C 80.035606 47.034462 80.419731 46.868359 80.694107 46.591522 L 80.968483 46.951416 C 80.611786 47.311298 80.145355 47.505085 79.56916 47.505085 C 78.526535 47.505085 77.785713 46.757626 77.785713 45.65028 C 77.785713 44.625992 78.526535 43.795483 79.514282 43.795483 Z M 78.361908 45.428814 L 80.666664 45.428814 C 80.666664 44.902828 80.309982 44.238415 79.514282 44.238415 C 78.773468 44.238415 78.389343 44.875145 78.361908 45.428814 Z"/>
        <path id="path47" fill="#ffffff" stroke="none" d="M 84.562813 45.068924 C 84.562813 44.459888 84.233559 44.266098 83.76712 44.266098 C 83.355553 44.266098 82.943985 44.542938 82.724487 44.819771 L 82.724487 47.394352 L 82.175735 47.394352 L 82.175735 42.522034 L 82.724487 42.522034 L 82.724487 44.376831 C 82.971428 44.072319 83.437874 43.767799 83.986626 43.767799 C 84.727432 43.767799 85.111565 44.127682 85.111565 44.902828 L 85.111565 47.394352 L 84.562813 47.394352 L 84.562813 45.068924 Z"/>
        <path id="path48" fill="#ffffff" stroke="none" d="M 86.209076 42.909603 C 86.209076 42.715816 86.373695 42.549721 86.565758 42.549721 C 86.757828 42.549721 86.922447 42.715816 86.922447 42.909603 C 86.922447 43.103394 86.757828 43.269489 86.565758 43.269489 C 86.373695 43.269489 86.209076 43.103394 86.209076 42.909603 Z M 86.291382 43.878532 L 86.840134 43.878532 L 86.840134 47.422031 L 86.291382 47.422031 L 86.291382 43.878532 Z"/>
        <path id="path49" fill="#ffffff" stroke="none" d="M 89.5839 43.795483 C 90.214966 43.795483 90.599098 44.072319 90.873474 44.404518 L 90.516785 44.736725 C 90.297272 44.404518 89.995468 44.266098 89.638779 44.266098 C 88.897957 44.266098 88.431519 44.847458 88.431519 45.622597 C 88.431519 46.397743 88.897957 46.979099 89.638779 46.979099 C 89.995468 46.979099 90.297272 46.840683 90.516785 46.508476 L 90.873474 46.840683 C 90.599098 47.200565 90.214966 47.449715 89.5839 47.449715 C 88.541275 47.449715 87.827896 46.646893 87.827896 45.594917 C 87.827896 44.598305 88.541275 43.795483 89.5839 43.795483 Z"/>
        <path id="path50" fill="#ffffff" stroke="none" d="M 91.72403 42.522034 L 92.272789 42.522034 L 92.272789 47.394352 L 91.72403 47.394352 L 91.72403 42.522034 Z"/>
        <path id="path51" fill="#ffffff" stroke="none" d="M 94.98912 43.795483 C 96.059174 43.795483 96.662811 44.625992 96.662811 45.677967 L 96.662811 45.816383 L 93.836731 45.816383 C 93.891617 46.480789 94.330612 47.034462 95.098862 47.034462 C 95.510422 47.034462 95.894554 46.868359 96.168938 46.591522 L 96.443314 46.951416 C 96.086624 47.311298 95.620178 47.505085 95.043999 47.505085 C 94.00135 47.505085 93.260551 46.757626 93.260551 45.65028 C 93.260551 44.625992 94.00135 43.795483 94.98912 43.795483 Z M 93.836731 45.428814 L 96.141502 45.428814 C 96.141502 44.902828 95.784798 44.238415 94.98912 44.238415 C 94.248299 44.238415 93.864166 44.875145 93.836731 45.428814 Z"/>
        <path id="path52" fill="#ffffff" stroke="none" d="M 97.623123 46.53616 C 97.842621 46.812996 98.309067 47.034462 98.775513 47.034462 C 99.324265 47.034462 99.59864 46.785309 99.59864 46.453102 C 99.59864 46.065536 99.159645 45.954803 98.693199 45.816383 C 98.089569 45.677967 97.431061 45.511864 97.431061 44.792088 C 97.431061 44.238415 97.897499 43.767799 98.748077 43.767799 C 99.351692 43.767799 99.76326 43.989265 100.037636 44.266098 L 99.790703 44.653667 C 99.571205 44.404518 99.187073 44.210739 98.748077 44.210739 C 98.281639 44.210739 97.979813 44.432205 97.979813 44.736725 C 97.979813 45.068924 98.39138 45.179665 98.830391 45.290398 C 99.434021 45.428814 100.147392 45.594917 100.147392 46.397743 C 100.147392 46.979099 99.680946 47.477402 98.775513 47.477402 C 98.199326 47.477402 97.705437 47.311298 97.348747 46.923729 L 97.623123 46.53616 Z"/>
    </g>
    <g id="g4">
        <path id="path53" fill="#ffffff" stroke="none" d="M 21.840364 4.014126 C 21.840364 4.152542 21.867804 4.290962 21.895235 4.401691 C 21.950113 4.512424 22.004992 4.623169 22.087301 4.706215 C 22.169611 4.789261 22.279369 4.844631 22.416557 4.900002 C 22.553745 4.955364 22.690933 4.955364 22.855553 4.955364 C 23.02018 4.955364 23.157368 4.927681 23.294556 4.900002 C 23.431744 4.872318 23.541492 4.816948 23.623812 4.733898 C 23.706121 4.650845 23.761 4.567795 23.81587 4.484749 C 23.870749 4.401691 23.870749 4.290962 23.870749 4.180229 C 23.870749 3.986439 23.788439 3.820335 23.651251 3.709602 C 23.514063 3.598869 23.349434 3.515823 23.129929 3.432766 C 22.910431 3.34972 22.690933 3.29435 22.443987 3.2113 C 22.19705 3.128246 21.977552 3.045197 21.758047 2.934464 C 21.538549 2.82373 21.37392 2.657627 21.236732 2.46384 C 21.099545 2.270061 21.017235 2.020901 21.017235 1.688702 C 21.017235 1.494915 21.072105 1.301132 21.154423 1.135029 C 21.236732 0.941242 21.37392 0.802822 21.51111 0.664406 C 21.675737 0.525986 21.867804 0.415253 22.087301 0.332207 C 22.306799 0.249149 22.553745 0.19379 22.828121 0.19379 C 23.075058 0.19379 23.294556 0.249149 23.514063 0.332207 C 23.733561 0.415253 23.898188 0.525986 24.062815 0.692089 C 24.200003 0.830509 24.337191 1.024296 24.4195 1.218079 C 24.50181 1.411865 24.55669 1.633331 24.55669 1.882481 L 23.761 1.882481 C 23.761 1.744064 23.733561 1.605648 23.706121 1.494915 C 23.651251 1.384182 23.596373 1.273449 23.514063 1.190392 C 23.431744 1.107346 23.349434 1.051975 23.212246 0.996613 C 23.102497 0.941242 22.965309 0.941242 22.855553 0.941242 C 22.718365 0.941242 22.581175 0.968925 22.443987 0.996613 C 22.334238 1.051975 22.224489 1.107346 22.142179 1.162716 C 22.059862 1.245762 22.004992 1.328812 21.950113 1.411865 C 21.895235 1.494915 21.895235 1.605648 21.895235 1.688702 C 21.895235 1.882481 21.977552 2.048584 22.11474 2.159317 C 22.251928 2.270061 22.416557 2.353107 22.636055 2.436153 C 22.855553 2.519211 23.075058 2.602257 23.321995 2.657627 C 23.568933 2.740677 23.788439 2.82373 24.007936 2.934464 C 24.227434 3.045197 24.392061 3.2113 24.529249 3.405083 C 24.666439 3.598869 24.748756 3.875706 24.748756 4.180229 C 24.748756 4.374008 24.693878 4.567795 24.611568 4.733898 C 24.529249 4.900002 24.392061 5.066097 24.254873 5.204517 C 24.090246 5.342934 23.898188 5.453674 23.678682 5.536724 C 23.459183 5.61977 23.184807 5.67514 22.910431 5.67514 C 22.636055 5.67514 22.361677 5.61977 22.142179 5.536724 C 21.922674 5.453674 21.730616 5.342934 21.565989 5.176838 C 21.401361 5.038422 21.291611 4.844631 21.209293 4.650845 C 21.126984 4.457066 21.072105 4.207912 21.072105 3.958755 L 21.840364 3.958755 Z"/>
        <path id="path54" fill="#ffffff" stroke="none" d="M 26.641953 5.647457 L 26.641953 0.968925 L 25.023132 0.968925 L 25.023132 0.221466 L 29.056461 0.221466 L 29.056461 0.968925 L 27.437641 0.968925 L 27.437641 5.647457 L 26.641953 5.647457 Z"/>
        <path id="path55" fill="#ffffff" stroke="none" d="M 28.836964 5.647457 L 30.867348 0.221466 L 31.580727 0.221466 L 33.611111 5.647457 L 32.760544 5.647457 L 32.294109 4.401691 L 30.126528 4.401691 L 29.660093 5.647457 L 28.836964 5.647457 Z M 30.428343 3.65424 L 32.047161 3.65424 L 31.224033 1.439552 L 30.428343 3.65424 Z"/>
        <path id="path56" fill="#ffffff" stroke="none" d="M 35.010433 5.647457 L 35.010433 0.968925 L 33.391613 0.968925 L 33.391613 0.221466 L 37.424942 0.221466 L 37.424942 0.968925 L 35.806122 0.968925 L 35.806122 5.647457 L 35.010433 5.647457 Z"/>
        <path id="path57" fill="#ffffff" stroke="none" d="M 38.193199 5.647457 L 38.193199 0.221466 L 41.705215 0.221466 L 41.705215 0.968925 L 38.988892 0.968925 L 38.988892 2.491524 L 41.485718 2.491524 L 41.485718 3.238987 L 38.988892 3.238987 L 38.988892 4.900002 L 41.787525 4.900002 L 41.787525 5.647457 L 38.193199 5.647457 Z"/>
        <path id="path58" fill="#ffffff" stroke="none" d="M 45.903172 5.481354 C 45.601364 5.342934 45.326988 5.149155 45.080044 4.900002 C 44.833103 4.650845 44.668476 4.346333 44.531288 4.014126 C 44.3941 3.681919 44.31179 3.322033 44.31179 2.934464 C 44.31179 2.546898 44.3941 2.187004 44.531288 1.854805 C 44.668476 1.522598 44.860546 1.218079 45.080044 0.968925 C 45.326988 0.719776 45.573925 0.525986 45.903172 0.387569 C 46.204987 0.249149 46.534241 0.166103 46.863487 0.166103 C 47.192745 0.166103 47.521999 0.249149 47.823807 0.387569 C 48.125622 0.525986 48.399998 0.719776 48.646935 0.968925 C 48.893883 1.218079 49.058498 1.522598 49.19569 1.854805 C 49.332878 2.187004 49.415195 2.546898 49.415195 2.934464 C 49.415195 3.322033 49.332878 3.681919 49.19569 4.014126 C 49.058498 4.346333 48.86644 4.650845 48.646935 4.900002 C 48.399998 5.149155 48.153061 5.342934 47.823807 5.481354 C 47.521999 5.61977 47.192745 5.702827 46.863487 5.702827 C 46.534241 5.702827 46.232426 5.61977 45.903172 5.481354 Z M 47.549431 4.789261 C 47.768936 4.678528 47.933563 4.540112 48.098183 4.374008 C 48.26281 4.207912 48.372559 3.986439 48.482315 3.737289 C 48.592064 3.488136 48.619503 3.2113 48.619503 2.934464 C 48.619503 2.657627 48.564625 2.380795 48.482315 2.131641 C 48.372559 1.882481 48.26281 1.661018 48.098183 1.494915 C 47.933563 1.328812 47.741497 1.190392 47.549431 1.079659 C 47.329933 0.968925 47.110435 0.941242 46.890926 0.941242 C 46.671429 0.941242 46.451923 0.996613 46.232426 1.079659 C 46.012928 1.190392 45.848301 1.328812 45.683674 1.494915 C 45.519047 1.661018 45.409298 1.882481 45.299549 2.131641 C 45.1898 2.380795 45.162361 2.657627 45.162361 2.934464 C 45.162361 3.2113 45.217232 3.488136 45.299549 3.737289 C 45.409298 3.986439 45.519047 4.207912 45.683674 4.374008 C 45.848301 4.540112 46.040359 4.678528 46.232426 4.789261 C 46.451923 4.900002 46.671429 4.927681 46.890926 4.927681 C 47.110435 4.927681 47.329933 4.900002 47.549431 4.789261 Z"/>
        <path id="path59" fill="#ffffff" stroke="none" d="M 50.348072 5.647457 L 50.348072 0.221466 L 53.75034 0.221466 L 53.75034 0.968925 L 51.171204 0.968925 L 51.171204 2.602257 L 53.283905 2.602257 L 53.283905 3.34972 L 51.171204 3.34972 L 51.171204 5.647457 L 50.348072 5.647457 Z"/>
        <path id="path60" fill="#ffffff" stroke="none" d="M 61.076191 3.820335 C 61.021313 3.986439 60.966442 4.152542 60.884125 4.318645 C 60.801815 4.484749 60.719498 4.623169 60.609749 4.761585 C 60.5 4.900002 60.390251 5.038422 60.253063 5.149155 C 60.115875 5.259888 59.978687 5.370621 59.81406 5.453674 C 59.649433 5.536724 59.484802 5.592094 59.292744 5.647457 C 59.100677 5.702827 58.908619 5.702827 58.716553 5.702827 C 58.387299 5.702827 58.058052 5.61977 57.756237 5.481354 C 57.454422 5.342934 57.180042 5.149155 56.933105 4.900002 C 56.686169 4.650845 56.521542 4.346333 56.384354 4.014126 C 56.247166 3.681919 56.164856 3.322033 56.164856 2.934464 C 56.164856 2.546898 56.247166 2.187004 56.384354 1.854805 C 56.521542 1.522598 56.713608 1.218079 56.933105 0.968925 C 57.180042 0.719776 57.426979 0.525986 57.756237 0.387569 C 58.058052 0.249149 58.387299 0.166103 58.716553 0.166103 C 58.908619 0.166103 59.100677 0.19379 59.292744 0.221466 C 59.457375 0.276836 59.621994 0.332207 59.786621 0.415253 C 59.951248 0.498302 60.088436 0.581356 60.225624 0.719776 C 60.362812 0.830509 60.472561 0.968925 60.58231 1.107346 C 60.692066 1.245762 60.774376 1.411865 60.856686 1.550285 C 60.939003 1.688702 60.993874 1.882481 61.048752 2.048584 L 60.198185 2.048584 C 60.170746 1.882481 60.088436 1.744064 60.006126 1.605648 C 59.923809 1.467228 59.81406 1.356495 59.704311 1.245762 C 59.594563 1.135029 59.429935 1.051975 59.265305 0.996613 C 59.100677 0.941242 58.93605 0.913555 58.743992 0.913555 C 58.524487 0.913555 58.304989 0.968925 58.085491 1.051975 C 57.865986 1.162716 57.701359 1.301132 57.536739 1.467228 C 57.372112 1.633331 57.262363 1.854805 57.152603 2.103958 C 57.042854 2.353107 57.015415 2.629944 57.015415 2.90678 C 57.015415 3.183617 57.070293 3.460453 57.152603 3.709602 C 57.262363 3.958755 57.372112 4.152542 57.536739 4.346333 C 57.701359 4.540112 57.893425 4.678528 58.085491 4.761585 C 58.304989 4.872318 58.524487 4.900002 58.743992 4.900002 C 58.93605 4.900002 59.128117 4.872318 59.292744 4.816948 C 59.457375 4.761585 59.594563 4.678528 59.73175 4.567795 C 59.868938 4.457066 59.978687 4.346333 60.060997 4.207912 C 60.143314 4.069496 60.225624 3.931076 60.253063 3.764973 L 61.076191 3.764973 Z"/>
        <path id="path61" fill="#ffffff" stroke="none" d="M 61.405437 5.647457 L 63.435829 0.221466 L 64.1492 0.221466 L 66.179596 5.647457 L 65.329025 5.647457 L 64.862587 4.401691 L 62.695011 4.401691 L 62.228569 5.647457 L 61.405437 5.647457 Z M 62.969387 3.65424 L 64.588203 3.65424 L 63.765079 1.439552 L 62.969387 3.65424 Z"/>
        <path id="path62" fill="#ffffff" stroke="none" d="M 66.975288 5.647457 L 66.975288 0.221466 L 67.798416 0.221466 L 67.798416 4.900002 L 70.350113 4.900002 L 70.350113 5.647457 L 66.975288 5.647457 Z"/>
        <path id="path63" fill="#ffffff" stroke="none" d="M 71.228119 5.647457 L 71.228119 0.221466 L 72.051247 0.221466 L 72.051247 5.647457 L 71.228119 5.647457 Z"/>
        <path id="path64" fill="#ffffff" stroke="none" d="M 73.50544 5.647457 L 73.50544 0.221466 L 76.907707 0.221466 L 76.907707 0.968925 L 74.328568 0.968925 L 74.328568 2.602257 L 76.441269 2.602257 L 76.441269 3.34972 L 74.328568 3.34972 L 74.328568 5.647457 L 73.50544 5.647457 Z"/>
        <path id="path65" fill="#ffffff" stroke="none" d="M 79.020409 5.481354 C 78.71859 5.342934 78.444214 5.149155 78.197281 4.900002 C 77.95034 4.650845 77.785713 4.346333 77.648529 4.014126 C 77.511337 3.681919 77.429031 3.322033 77.429031 2.934464 C 77.429031 2.546898 77.511337 2.187004 77.648529 1.854805 C 77.785713 1.522598 77.977783 1.218079 78.197281 0.968925 C 78.444214 0.719776 78.691154 0.525986 79.020409 0.387569 C 79.322227 0.249149 79.651474 0.166103 79.980728 0.166103 C 80.309982 0.166103 80.639229 0.249149 80.94104 0.387569 C 81.242859 0.525986 81.517235 0.719776 81.764175 0.968925 C 82.011108 1.218079 82.175735 1.522598 82.312927 1.854805 C 82.450111 2.187004 82.532425 2.546898 82.532425 2.934464 C 82.532425 3.322033 82.450111 3.681919 82.312927 4.014126 C 82.175735 4.346333 81.983673 4.650845 81.764175 4.900002 C 81.517235 5.149155 81.270302 5.342934 80.94104 5.481354 C 80.639229 5.61977 80.309982 5.702827 79.980728 5.702827 C 79.651474 5.702827 79.322227 5.61977 79.020409 5.481354 Z M 80.666664 4.789261 C 80.886162 4.678528 81.050789 4.540112 81.215416 4.374008 C 81.380051 4.207912 81.489799 3.986439 81.599548 3.737289 C 81.709297 3.488136 81.736732 3.2113 81.736732 2.934464 C 81.736732 2.657627 81.681862 2.380795 81.599548 2.131641 C 81.489799 1.882481 81.380051 1.661018 81.215416 1.494915 C 81.050789 1.328812 80.858734 1.190392 80.666664 1.079659 C 80.474602 0.968925 80.227661 0.941242 80.008163 0.941242 C 79.788658 0.941242 79.56916 0.996613 79.349663 1.079659 C 79.130157 1.190392 78.96553 1.328812 78.800911 1.494915 C 78.636284 1.661018 78.526535 1.882481 78.416779 2.131641 C 78.30703 2.380795 78.279587 2.657627 78.279587 2.934464 C 78.279587 3.2113 78.334465 3.488136 78.416779 3.737289 C 78.526535 3.986439 78.636284 4.207912 78.800911 4.374008 C 78.96553 4.540112 79.157593 4.678528 79.349663 4.789261 C 79.56916 4.900002 79.788658 4.927681 80.008163 4.927681 C 80.227661 4.955364 80.447166 4.900002 80.666664 4.789261 Z"/>
        <path id="path66" fill="#ffffff" stroke="none" d="M 83.629929 5.647457 L 83.629929 0.221466 L 85.687752 0.221466 C 85.9347 0.221466 86.154198 0.276836 86.34626 0.359882 C 86.538322 0.44294 86.730385 0.553673 86.895012 0.719776 C 87.032204 0.858192 87.169388 1.051975 87.251701 1.245762 C 87.334007 1.439552 87.388885 1.661018 87.388885 1.882481 C 87.388885 2.187004 87.334007 2.436153 87.196823 2.629944 C 87.087074 2.82373 86.949883 2.989826 86.785255 3.100567 C 86.648071 3.2113 86.428574 3.322033 86.209076 3.432766 L 87.498634 5.67514 L 86.593201 5.67514 L 85.358505 3.515823 L 84.425629 3.515823 L 84.425629 5.67514 L 83.629929 5.67514 Z M 84.453056 2.76836 L 85.687752 2.76836 C 85.824944 2.76836 85.9347 2.740677 86.044449 2.71299 C 86.154198 2.657627 86.236504 2.602257 86.318825 2.519211 C 86.401131 2.436153 86.456009 2.353107 86.51088 2.242374 C 86.565758 2.131641 86.565758 2.020901 86.565758 1.910168 C 86.565758 1.771751 86.538322 1.661018 86.51088 1.550285 C 86.456009 1.439552 86.401131 1.356495 86.318825 1.273449 C 86.236504 1.190392 86.154198 1.135029 86.044449 1.079659 C 85.9347 1.024296 85.824944 1.024296 85.687752 1.024296 L 84.453056 1.024296 L 84.453056 2.76836 Z"/>
        <path id="path67" fill="#ffffff" stroke="none" d="M 88.568703 5.647457 L 88.568703 0.221466 L 89.282082 0.221466 L 91.861221 4.097172 L 91.861221 0.221466 L 92.684349 0.221466 L 92.684349 5.647457 L 91.970978 5.647457 L 89.39183 1.771751 L 89.39183 5.647457 L 88.568703 5.647457 Z"/>
        <path id="path68" fill="#ffffff" stroke="none" d="M 94.111115 5.647457 L 94.111115 0.221466 L 94.934242 0.221466 L 94.934242 5.647457 L 94.111115 5.647457 Z"/>
        <path id="path69" fill="#ffffff" stroke="none" d="M 95.729942 5.647457 L 97.760315 0.221466 L 98.473701 0.221466 L 100.504082 5.647457 L 99.653519 5.647457 L 99.187073 4.401691 L 97.019493 4.401691 L 96.55307 5.647457 L 95.729942 5.647457 Z M 97.293869 3.65424 L 98.912697 3.65424 L 98.089569 1.439552 L 97.293869 3.65424 Z"/>
    </g>
</svg>
